<svg width="1170" height="665" xmlns="http://www.w3.org/2000/svg"><g><path d="M-31.076280663255602,-73.86599289719015L-54.902288482990116,112.13697582483292L-18.338345310185105,12.847445039078593Z" fill="#fffcf8" stroke="#fffcf8"></path><path d="M-31.076280663255602,-73.86599289719015L-18.338345310185105,12.847445039078593L5.494986840058118,-68.0019621597603Z" fill="#fffbf7" stroke="#fffbf7"></path><path d="M-31.076280663255602,-73.86599289719015L5.494986840058118,-68.0019621597603L125.39235223317519,-72.85291553707793Z" fill="#fff9f2" stroke="#fff9f2"></path><path d="M5.494986840058118,-68.0019621597603L-18.338345310185105,12.847445039078593L120.88759911479428,18.447885615751147Z" fill="#fff8f2" stroke="#fff8f2"></path><path d="M5.494986840058118,-68.0019621597603L120.88759911479428,18.447885615751147L125.39235223317519,-72.85291553707793Z" fill="#fff6ed" stroke="#fff6ed"></path><path d="M125.39235223317519,-72.85291553707793L120.88759911479428,18.447885615751147L206.77886923542246,-10.269423571880907Z" fill="#fff2e6" stroke="#fff2e6"></path><path d="M125.39235223317519,-72.85291553707793L206.77886923542246,-10.269423571880907L276.4665090525523,-65.92056349152699Z" fill="#ffeede" stroke="#ffeede"></path><path d="M125.39235223317519,-72.85291553707793L276.4665090525523,-65.92056349152699L732.7919539297,-66.68179746484384Z" fill="#fedec1" stroke="#fedec1"></path><path d="M206.77886923542246,-10.269423571880907L120.88759911479428,18.447885615751147L202.46815712191164,49.56671719439328Z" fill="#fff0e1" stroke="#fff0e1"></path><path d="M206.77886923542246,-10.269423571880907L202.46815712191164,49.56671719439328L300.69659689674154,16.79312060587108Z" fill="#feecd8" stroke="#feecd8"></path><path d="M206.77886923542246,-10.269423571880907L300.69659689674154,16.79312060587108L276.4665090525523,-65.92056349152699Z" fill="#feead5" stroke="#feead5"></path><path d="M276.4665090525523,-65.92056349152699L300.69659689674154,16.79312060587108L333.96625658264384,-41.14855396328494Z" fill="#fee6cf" stroke="#fee6cf"></path><path d="M276.4665090525523,-65.92056349152699L333.96625658264384,-41.14855396328494L506.50833691470325,-32.41601082496345Z" fill="#fedec2" stroke="#fedec2"></path><path d="M276.4665090525523,-65.92056349152699L506.50833691470325,-32.41601082496345L732.7919539297,-66.68179746484384Z" fill="#fecfab" stroke="#fecfab"></path><path d="M333.96625658264384,-41.14855396328494L300.69659689674154,16.79312060587108L375.120878519956,45.420483336783946Z" fill="#fee3c8" stroke="#fee3c8"></path><path d="M333.96625658264384,-41.14855396328494L375.120878519956,45.420483336783946L441.4873518818058,-21.964909879025072Z" fill="#feddc0" stroke="#feddc0"></path><path d="M333.96625658264384,-41.14855396328494L441.4873518818058,-21.964909879025072L506.50833691470325,-32.41601082496345Z" fill="#fed8b7" stroke="#fed8b7"></path><path d="M441.4873518818058,-21.964909879025072L375.120878519956,45.420483336783946L436.6310647246428,73.02220507059246Z" fill="#fed9b8" stroke="#fed9b8"></path><path d="M441.4873518818058,-21.964909879025072L436.6310647246428,73.02220507059246L537.0948998257518,9.751211206894368Z" fill="#fed3af" stroke="#fed3af"></path><path d="M441.4873518818058,-21.964909879025072L537.0948998257518,9.751211206894368L506.50833691470325,-32.41601082496345Z" fill="#fed0ac" stroke="#fed0ac"></path><path d="M506.50833691470325,-32.41601082496345L537.0948998257518,9.751211206894368L581.4517813618295,-31.977468258701265Z" fill="#fecba5" stroke="#fecba5"></path><path d="M506.50833691470325,-32.41601082496345L581.4517813618295,-31.977468258701265L682.2865029680543,-50.19171932479367Z" fill="#fec69d" stroke="#fec69d"></path><path d="M506.50833691470325,-32.41601082496345L682.2865029680543,-50.19171932479367L732.7919539297,-66.68179746484384Z" fill="#fcbf96" stroke="#fcbf96"></path><path d="M581.4517813618295,-31.977468258701265L537.0948998257518,9.751211206894368L594.1208724700846,46.55321670696139Z" fill="#fec8a0" stroke="#fec8a0"></path><path d="M581.4517813618295,-31.977468258701265L594.1208724700846,46.55321670696139L659.0226038778201,44.554016918409616Z" fill="#fdc399" stroke="#fdc399"></path><path d="M581.4517813618295,-31.977468258701265L659.0226038778201,44.554016918409616L682.2865029680543,-50.19171932479367Z" fill="#fcbf96" stroke="#fcbf96"></path><path d="M682.2865029680543,-50.19171932479367L659.0226038778201,44.554016918409616L737.7356410957873,45.204179098363966Z" fill="#fab98e" stroke="#fab98e"></path><path d="M682.2865029680543,-50.19171932479367L737.7356410957873,45.204179098363966L732.7919539297,-66.68179746484384Z" fill="#f9b68b" stroke="#f9b68b"></path><path d="M732.7919539297,-66.68179746484384L737.7356410957873,45.204179098363966L821.2669118610211,-58.08895032387227Z" fill="#f6b187" stroke="#f6b187"></path><path d="M732.7919539297,-66.68179746484384L821.2669118610211,-58.08895032387227L1021.1252507427707,-54.59209560183808Z" fill="#eea681" stroke="#eea681"></path><path d="M732.7919539297,-66.68179746484384L1021.1252507427707,-54.59209560183808L1227.41116394056,-58.83488439721987Z" fill="#ce9981" stroke="#ce9981"></path><path d="M821.2669118610211,-58.08895032387227L737.7356410957873,45.204179098363966L873.6381000094116,31.66277655167505Z" fill="#f2ab84" stroke="#f2ab84"></path><path d="M821.2669118610211,-58.08895032387227L873.6381000094116,31.66277655167505L913.2815672364086,-21.42678075702861Z" fill="#eda581" stroke="#eda581"></path><path d="M821.2669118610211,-58.08895032387227L913.2815672364086,-21.42678075702861L1021.1252507427707,-54.59209560183808Z" fill="#e1a081" stroke="#e1a081"></path><path d="M913.2815672364086,-21.42678075702861L873.6381000094116,31.66277655167505L904.2089146352373,18.68839067639783Z" fill="#e7a280" stroke="#e7a280"></path><path d="M913.2815672364086,-21.42678075702861L904.2089146352373,18.68839067639783L979.2932743439451,74.7550565795973Z" fill="#de9f7f" stroke="#de9f7f"></path><path d="M913.2815672364086,-21.42678075702861L979.2932743439451,74.7550565795973L1021.1252507427707,-54.59209560183808Z" fill="#d49b81" stroke="#d49b81"></path><path d="M1021.1252507427707,-54.59209560183808L979.2932743439451,74.7550565795973L1075.2462005987763,-37.45706869987771Z" fill="#c59682" stroke="#c59682"></path><path d="M1021.1252507427707,-54.59209560183808L1075.2462005987763,-37.45706869987771L1227.41116394056,-58.83488439721987Z" fill="#b08e83" stroke="#b08e83"></path><path d="M1075.2462005987763,-37.45706869987771L979.2932743439451,74.7550565795973L1109.9204630521126,18.411542479880154Z" fill="#be9381" stroke="#be9381"></path><path d="M1075.2462005987763,-37.45706869987771L1109.9204630521126,18.411542479880154L1140.4868244216777,-17.839111532084644Z" fill="#af8e83" stroke="#af8e83"></path><path d="M1075.2462005987763,-37.45706869987771L1140.4868244216777,-17.839111532084644L1227.41116394056,-58.83488439721987Z" fill="#a58b83" stroke="#a58b83"></path><path d="M1140.4868244216777,-17.839111532084644L1109.9204630521126,18.411542479880154L1136.9622158817947,47.12253624107689Z" fill="#aa8d82" stroke="#aa8d82"></path><path d="M1140.4868244216777,-17.839111532084644L1136.9622158817947,47.12253624107689L1257.1567455655895,14.555316348560154Z" fill="#9d8882" stroke="#9d8882"></path><path d="M1140.4868244216777,-17.839111532084644L1257.1567455655895,14.555316348560154L1227.41116394056,-58.83488439721987Z" fill="#958584" stroke="#958584"></path><path d="M-18.338345310185105,12.847445039078593L-54.902288482990116,112.13697582483292L57.11829172214493,72.36187630333006Z" fill="#fffbf2" stroke="#fffbf2"></path><path d="M-18.338345310185105,12.847445039078593L57.11829172214493,72.36187630333006L120.88759911479428,18.447885615751147Z" fill="#fff8ee" stroke="#fff8ee"></path><path d="M57.11829172214493,72.36187630333006L-54.902288482990116,112.13697582483292L66.51948619401082,102.26914375089109Z" fill="#fff9ea" stroke="#fff9ea"></path><path d="M57.11829172214493,72.36187630333006L66.51948619401082,102.26914375089109L154.31889163563028,97.54100718069822Z" fill="#fff5e5" stroke="#fff5e5"></path><path d="M57.11829172214493,72.36187630333006L154.31889163563028,97.54100718069822L120.88759911479428,18.447885615751147Z" fill="#fff5e7" stroke="#fff5e7"></path><path d="M120.88759911479428,18.447885615751147L154.31889163563028,97.54100718069822L202.46815712191164,49.56671719439328Z" fill="#fff2e2" stroke="#fff2e2"></path><path d="M202.46815712191164,49.56671719439328L154.31889163563028,97.54100718069822L231.28747635753825,145.07710687583312Z" fill="#ffefd6" stroke="#ffefd6"></path><path d="M202.46815712191164,49.56671719439328L231.28747635753825,145.07710687583312L294.81273545650765,117.7943086461164Z" fill="#feeacd" stroke="#feeacd"></path><path d="M202.46815712191164,49.56671719439328L294.81273545650765,117.7943086461164L300.69659689674154,16.79312060587108Z" fill="#feead1" stroke="#feead1"></path><path d="M300.69659689674154,16.79312060587108L294.81273545650765,117.7943086461164L370.3833773289807,90.41028020903468Z" fill="#fee4c7" stroke="#fee4c7"></path><path d="M300.69659689674154,16.79312060587108L370.3833773289807,90.41028020903468L375.120878519956,45.420483336783946Z" fill="#fee1c3" stroke="#fee1c3"></path><path d="M375.120878519956,45.420483336783946L370.3833773289807,90.41028020903468L436.6310647246428,73.02220507059246Z" fill="#fedcba" stroke="#fedcba"></path><path d="M436.6310647246428,73.02220507059246L370.3833773289807,90.41028020903468L434.65174054028466,97.01900471467525Z" fill="#fedab4" stroke="#fedab4"></path><path d="M436.6310647246428,73.02220507059246L434.65174054028466,97.01900471467525L516.0870340932161,150.60988791985437Z" fill="#fed3a5" stroke="#fed3a5"></path><path d="M436.6310647246428,73.02220507059246L516.0870340932161,150.60988791985437L537.0948998257518,9.751211206894368Z" fill="#fed0a8" stroke="#fed0a8"></path><path d="M537.0948998257518,9.751211206894368L516.0870340932161,150.60988791985437L594.1208724700846,46.55321670696139Z" fill="#fecaa0" stroke="#fecaa0"></path><path d="M594.1208724700846,46.55321670696139L516.0870340932161,150.60988791985437L626.5272355382331,109.61902035633102Z" fill="#fec694" stroke="#fec694"></path><path d="M594.1208724700846,46.55321670696139L626.5272355382331,109.61902035633102L659.0226038778201,44.554016918409616Z" fill="#fdc194" stroke="#fdc194"></path><path d="M659.0226038778201,44.554016918409616L626.5272355382331,109.61902035633102L704.9243922624737,132.1682080393657Z" fill="#fbbc8a" stroke="#fbbc8a"></path><path d="M659.0226038778201,44.554016918409616L704.9243922624737,132.1682080393657L737.7356410957873,45.204179098363966Z" fill="#fab88a" stroke="#fab88a"></path><path d="M737.7356410957873,45.204179098363966L704.9243922624737,132.1682080393657L732.001144674141,126.95913382573053Z" fill="#f9b480" stroke="#f9b480"></path><path d="M737.7356410957873,45.204179098363966L732.001144674141,126.95913382573053L809.5703401137143,153.29064849298447Z" fill="#f6b07b" stroke="#f6b07b"></path><path d="M737.7356410957873,45.204179098363966L809.5703401137143,153.29064849298447L873.6381000094116,31.66277655167505Z" fill="#f2ac81" stroke="#f2ac81"></path><path d="M873.6381000094116,31.66277655167505L809.5703401137143,153.29064849298447L928.4846081282012,117.89057937683538Z" fill="#eda477" stroke="#eda477"></path><path d="M873.6381000094116,31.66277655167505L928.4846081282012,117.89057937683538L904.2089146352373,18.68839067639783Z" fill="#e6a17e" stroke="#e6a17e"></path><path d="M904.2089146352373,18.68839067639783L928.4846081282012,117.89057937683538L979.2932743439451,74.7550565795973Z" fill="#dd9e7d" stroke="#dd9e7d"></path><path d="M979.2932743439451,74.7550565795973L928.4846081282012,117.89057937683538L1034.7270997357555,137.64692609896883Z" fill="#d19974" stroke="#d19974"></path><path d="M979.2932743439451,74.7550565795973L1034.7270997357555,137.64692609896883L1060.8617990394123,137.0746702584438Z" fill="#c59573" stroke="#c59573"></path><path d="M979.2932743439451,74.7550565795973L1060.8617990394123,137.0746702584438L1109.9204630521126,18.411542479880154Z" fill="#bf947e" stroke="#bf947e"></path><path d="M1109.9204630521126,18.411542479880154L1060.8617990394123,137.0746702584438L1136.9622158817947,47.12253624107689Z" fill="#b18f7f" stroke="#b18f7f"></path><path d="M1136.9622158817947,47.12253624107689L1060.8617990394123,137.0746702584438L1164.3727031024173,150.34144611097872Z" fill="#ac8c75" stroke="#ac8c75"></path><path d="M1136.9622158817947,47.12253624107689L1164.3727031024173,150.34144611097872L1269.9026846606284,115.38100097561255Z" fill="#9a8678" stroke="#9a8678"></path><path d="M1136.9622158817947,47.12253624107689L1269.9026846606284,115.38100097561255L1257.1567455655895,14.555316348560154Z" fill="#928481" stroke="#928481"></path><path d="M-54.902288482990116,112.13697582483292L-68.27245442196727,735.461539842654L-46.98069330537692,269.38956873025745Z" fill="#ffc796" stroke="#ffc796"></path><path d="M-54.902288482990116,112.13697582483292L-46.98069330537692,269.38956873025745L-15.825049676932395,181.88824565382674Z" fill="#fff3d2" stroke="#fff3d2"></path><path d="M-54.902288482990116,112.13697582483292L-15.825049676932395,181.88824565382674L66.51948619401082,102.26914375089109Z" fill="#fff8e1" stroke="#fff8e1"></path><path d="M66.51948619401082,102.26914375089109L-15.825049676932395,181.88824565382674L55.37546085892245,232.04640754964203Z" fill="#fff3d0" stroke="#fff3d0"></path><path d="M66.51948619401082,102.26914375089109L55.37546085892245,232.04640754964203L153.17053890554234,209.92535306839272Z" fill="#ffefc7" stroke="#ffefc7"></path><path d="M66.51948619401082,102.26914375089109L153.17053890554234,209.92535306839272L154.31889163563028,97.54100718069822Z" fill="#fff1d3" stroke="#fff1d3"></path><path d="M154.31889163563028,97.54100718069822L153.17053890554234,209.92535306839272L231.28747635753825,145.07710687583312Z" fill="#ffedc8" stroke="#ffedc8"></path><path d="M231.28747635753825,145.07710687583312L153.17053890554234,209.92535306839272L207.19411593396217,204.03157202294096Z" fill="#ffe6b8" stroke="#ffe6b8"></path><path d="M231.28747635753825,145.07710687583312L207.19411593396217,204.03157202294096L311.45002147415653,189.14860639255494Z" fill="#fee4b3" stroke="#fee4b3"></path><path d="M231.28747635753825,145.07710687583312L311.45002147415653,189.14860639255494L294.81273545650765,117.7943086461164Z" fill="#fee6b9" stroke="#fee6b9"></path><path d="M294.81273545650765,117.7943086461164L311.45002147415653,189.14860639255494L370.3833773289807,90.41028020903468Z" fill="#fee2b7" stroke="#fee2b7"></path><path d="M370.3833773289807,90.41028020903468L311.45002147415653,189.14860639255494L389.0046246955171,219.53513136366382Z" fill="#fedda6" stroke="#fedda6"></path><path d="M370.3833773289807,90.41028020903468L389.0046246955171,219.53513136366382L416.5063051972538,214.5442821411416Z" fill="#fed79c" stroke="#fed79c"></path><path d="M370.3833773289807,90.41028020903468L416.5063051972538,214.5442821411416L434.65174054028466,97.01900471467525Z" fill="#fed8a7" stroke="#fed8a7"></path><path d="M434.65174054028466,97.01900471467525L416.5063051972538,214.5442821411416L485.79845513915643,198.51407254347578Z" fill="#fed194" stroke="#fed194"></path><path d="M434.65174054028466,97.01900471467525L485.79845513915643,198.51407254347578L516.0870340932161,150.60988791985437Z" fill="#fecf95" stroke="#fecf95"></path><path d="M516.0870340932161,150.60988791985437L485.79845513915643,198.51407254347578L591.6261127009057,210.814041828271Z" fill="#fec47f" stroke="#fec47f"></path><path d="M516.0870340932161,150.60988791985437L591.6261127009057,210.814041828271L626.5272355382331,109.61902035633102Z" fill="#fec483" stroke="#fec483"></path><path d="M626.5272355382331,109.61902035633102L591.6261127009057,210.814041828271L674.3119683838449,211.66492552496493Z" fill="#fcbb74" stroke="#fcbb74"></path><path d="M626.5272355382331,109.61902035633102L674.3119683838449,211.66492552496493L704.9243922624737,132.1682080393657Z" fill="#fbb978" stroke="#fbb978"></path><path d="M704.9243922624737,132.1682080393657L674.3119683838449,211.66492552496493L770.643752256874,227.07178647164255Z" fill="#f9ad63" stroke="#f9ad63"></path><path d="M704.9243922624737,132.1682080393657L770.643752256874,227.07178647164255L732.001144674141,126.95913382573053Z" fill="#f8b06b" stroke="#f8b06b"></path><path d="M732.001144674141,126.95913382573053L770.643752256874,227.07178647164255L809.5703401137143,153.29064849298447Z" fill="#f5ac67" stroke="#f5ac67"></path><path d="M809.5703401137143,153.29064849298447L770.643752256874,227.07178647164255L838.0643914011307,181.77243636455387Z" fill="#f2a35d" stroke="#f2a35d"></path><path d="M809.5703401137143,153.29064849298447L838.0643914011307,181.77243636455387L900.668904853519,174.37330479267985Z" fill="#efa261" stroke="#efa261"></path><path d="M809.5703401137143,153.29064849298447L900.668904853519,174.37330479267985L928.4846081282012,117.89057937683538Z" fill="#eca167" stroke="#eca167"></path><path d="M928.4846081282012,117.89057937683538L900.668904853519,174.37330479267985L1016.9201318826526,192.0181971276179Z" fill="#da9a63" stroke="#da9a63"></path><path d="M928.4846081282012,117.89057937683538L1016.9201318826526,192.0181971276179L1034.7270997357555,137.64692609896883Z" fill="#ce9668" stroke="#ce9668"></path><path d="M1034.7270997357555,137.64692609896883L1016.9201318826526,192.0181971276179L1048.9309716736898,177.5588794820942Z" fill="#c39162" stroke="#c39162"></path><path d="M1034.7270997357555,137.64692609896883L1048.9309716736898,177.5588794820942L1060.8617990394123,137.0746702584438Z" fill="#bf9168" stroke="#bf9168"></path><path d="M1060.8617990394123,137.0746702584438L1048.9309716736898,177.5588794820942L1135.338488749694,220.02626810921356Z" fill="#b68a5e" stroke="#b68a5e"></path><path d="M1060.8617990394123,137.0746702584438L1135.338488749694,220.02626810921356L1164.3727031024173,150.34144611097872Z" fill="#ac8963" stroke="#ac8963"></path><path d="M1164.3727031024173,150.34144611097872L1135.338488749694,220.02626810921356L1219.670754019171,225.53585369838402Z" fill="#9e7d57" stroke="#9e7d57"></path><path d="M1164.3727031024173,150.34144611097872L1219.670754019171,225.53585369838402L1269.9026846606284,115.38100097561255Z" fill="#938166" stroke="#938166"></path><path d="M1269.9026846606284,115.38100097561255L1219.670754019171,225.53585369838402L1235.8816219540313,285.58932072715834Z" fill="#8c7454" stroke="#8c7454"></path><path d="M1269.9026846606284,115.38100097561255L1235.8816219540313,285.58932072715834L1274.5933144399896,383.65886581130326Z" fill="#886540" stroke="#886540"></path><path d="M-15.825049676932395,181.88824565382674L-46.98069330537692,269.38956873025745L55.37546085892245,232.04640754964203Z" fill="#ffe8be" stroke="#ffe8be"></path><path d="M55.37546085892245,232.04640754964203L-46.98069330537692,269.38956873025745L59.28167781792581,309.77309830486774Z" fill="#ffdcac" stroke="#ffdcac"></path><path d="M55.37546085892245,232.04640754964203L59.28167781792581,309.77309830486774L130.6594571005553,254.88621902186424Z" fill="#ffdaa8" stroke="#ffdaa8"></path><path d="M55.37546085892245,232.04640754964203L130.6594571005553,254.88621902186424L153.17053890554234,209.92535306839272Z" fill="#ffe0b1" stroke="#ffe0b1"></path><path d="M153.17053890554234,209.92535306839272L130.6594571005553,254.88621902186424L213.763880294282,277.4478508764878Z" fill="#ffdaa5" stroke="#ffdaa5"></path><path d="M153.17053890554234,209.92535306839272L213.763880294282,277.4478508764878L207.19411593396217,204.03157202294096Z" fill="#ffdca7" stroke="#ffdca7"></path><path d="M207.19411593396217,204.03157202294096L213.763880294282,277.4478508764878L266.3665615511127,275.99402903812006Z" fill="#fed499" stroke="#fed499"></path><path d="M207.19411593396217,204.03157202294096L266.3665615511127,275.99402903812006L311.45002147415653,189.14860639255494Z" fill="#fed9a0" stroke="#fed9a0"></path><path d="M311.45002147415653,189.14860639255494L266.3665615511127,275.99402903812006L375.178744122386,294.7277514846064Z" fill="#fecc8b" stroke="#fecc8b"></path><path d="M311.45002147415653,189.14860639255494L375.178744122386,294.7277514846064L389.0046246955171,219.53513136366382Z" fill="#fecc8a" stroke="#fecc8a"></path><path d="M389.0046246955171,219.53513136366382L375.178744122386,294.7277514846064L413.6204974493012,266.45983625901863Z" fill="#fec27a" stroke="#fec27a"></path><path d="M389.0046246955171,219.53513136366382L413.6204974493012,266.45983625901863L416.5063051972538,214.5442821411416Z" fill="#fec782" stroke="#fec782"></path><path d="M416.5063051972538,214.5442821411416L413.6204974493012,266.45983625901863L485.79845513915643,198.51407254347578Z" fill="#fec47e" stroke="#fec47e"></path><path d="M485.79845513915643,198.51407254347578L413.6204974493012,266.45983625901863L546.9058041414246,306.56506325583905Z" fill="#feb86c" stroke="#feb86c"></path><path d="M485.79845513915643,198.51407254347578L546.9058041414246,306.56506325583905L571.7052616784349,274.57927983487025Z" fill="#feb162" stroke="#feb162"></path><path d="M485.79845513915643,198.51407254347578L571.7052616784349,274.57927983487025L591.6261127009057,210.814041828271Z" fill="#feb86c" stroke="#feb86c"></path><path d="M591.6261127009057,210.814041828271L571.7052616784349,274.57927983487025L660.1788075547665,259.33335159672424Z" fill="#fdac5b" stroke="#fdac5b"></path><path d="M591.6261127009057,210.814041828271L660.1788075547665,259.33335159672424L674.3119683838449,211.66492552496493Z" fill="#fcad5f" stroke="#fcad5f"></path><path d="M674.3119683838449,211.66492552496493L660.1788075547665,259.33335159672424L766.8413613270968,274.6707451553084Z" fill="#faa04e" stroke="#faa04e"></path><path d="M674.3119683838449,211.66492552496493L766.8413613270968,274.6707451553084L770.643752256874,227.07178647164255Z" fill="#f89f4d" stroke="#f89f4d"></path><path d="M770.643752256874,227.07178647164255L766.8413613270968,274.6707451553084L828.4947040490806,253.93502418650314Z" fill="#f49545" stroke="#f49545"></path><path d="M770.643752256874,227.07178647164255L828.4947040490806,253.93502418650314L838.0643914011307,181.77243636455387Z" fill="#f29a50" stroke="#f29a50"></path><path d="M838.0643914011307,181.77243636455387L828.4947040490806,253.93502418650314L900.668904853519,174.37330479267985Z" fill="#ee9a54" stroke="#ee9a54"></path><path d="M900.668904853519,174.37330479267985L828.4947040490806,253.93502418650314L916.8583133793436,261.5075370389968Z" fill="#eb9048" stroke="#eb9048"></path><path d="M900.668904853519,174.37330479267985L916.8583133793436,261.5075370389968L969.9496942711994,254.48415577877313Z" fill="#df8b48" stroke="#df8b48"></path><path d="M900.668904853519,174.37330479267985L969.9496942711994,254.48415577877313L1016.9201318826526,192.0181971276179Z" fill="#d68e52" stroke="#d68e52"></path><path d="M1016.9201318826526,192.0181971276179L969.9496942711994,254.48415577877313L1093.769447512459,304.92422461975366Z" fill="#c57d41" stroke="#c57d41"></path><path d="M1016.9201318826526,192.0181971276179L1093.769447512459,304.92422461975366L1048.9309716736898,177.5588794820942Z" fill="#be824c" stroke="#be824c"></path><path d="M1048.9309716736898,177.5588794820942L1093.769447512459,304.92422461975366L1135.338488749694,220.02626810921356Z" fill="#b47b48" stroke="#b47b48"></path><path d="M1135.338488749694,220.02626810921356L1093.769447512459,304.92422461975366L1178.901420107577,301.3901555771008Z" fill="#a86e3a" stroke="#a86e3a"></path><path d="M1135.338488749694,220.02626810921356L1178.901420107577,301.3901555771008L1219.670754019171,225.53585369838402Z" fill="#9d7043" stroke="#9d7043"></path><path d="M1219.670754019171,225.53585369838402L1178.901420107577,301.3901555771008L1235.8816219540313,285.58932072715834Z" fill="#94683d" stroke="#94683d"></path><path d="M-46.98069330537692,269.38956873025745L-68.27245442196727,735.461539842654L-44.94118960574269,363.05939647136256Z" fill="#ffb28d" stroke="#ffb28d"></path><path d="M-46.98069330537692,269.38956873025745L-44.94118960574269,363.05939647136256L16.987180174328387,332.9011698043905Z" fill="#ffd39f" stroke="#ffd39f"></path><path d="M-46.98069330537692,269.38956873025745L16.987180174328387,332.9011698043905L59.28167781792581,309.77309830486774Z" fill="#ffd5a2" stroke="#ffd5a2"></path><path d="M59.28167781792581,309.77309830486774L16.987180174328387,332.9011698043905L120.54482070030645,376.2149627134204Z" fill="#ffc991" stroke="#ffc991"></path><path d="M59.28167781792581,309.77309830486774L120.54482070030645,376.2149627134204L130.6594571005553,254.88621902186424Z" fill="#ffce95" stroke="#ffce95"></path><path d="M130.6594571005553,254.88621902186424L120.54482070030645,376.2149627134204L178.13646924914792,337.58204996818677Z" fill="#ffca8e" stroke="#ffca8e"></path><path d="M130.6594571005553,254.88621902186424L178.13646924914792,337.58204996818677L213.763880294282,277.4478508764878Z" fill="#ffcf95" stroke="#ffcf95"></path><path d="M213.763880294282,277.4478508764878L178.13646924914792,337.58204996818677L267.2939081583172,371.30971485283226Z" fill="#fec381" stroke="#fec381"></path><path d="M213.763880294282,277.4478508764878L267.2939081583172,371.30971485283226L266.3665615511127,275.99402903812006Z" fill="#fec583" stroke="#fec583"></path><path d="M266.3665615511127,275.99402903812006L267.2939081583172,371.30971485283226L375.178744122386,294.7277514846064Z" fill="#fec079" stroke="#fec079"></path><path d="M375.178744122386,294.7277514846064L267.2939081583172,371.30971485283226L379.3029178539291,346.72085114987567Z" fill="#feb56b" stroke="#feb56b"></path><path d="M375.178744122386,294.7277514846064L379.3029178539291,346.72085114987567L411.9542536884546,341.08617750927806Z" fill="#feb264" stroke="#feb264"></path><path d="M375.178744122386,294.7277514846064L411.9542536884546,341.08617750927806L413.6204974493012,266.45983625901863Z" fill="#feb76b" stroke="#feb76b"></path><path d="M413.6204974493012,266.45983625901863L411.9542536884546,341.08617750927806L546.9058041414246,306.56506325583905Z" fill="#feb060" stroke="#feb060"></path><path d="M546.9058041414246,306.56506325583905L411.9542536884546,341.08617750927806L493.04454064229503,387.05552126513794Z" fill="#fea34f" stroke="#fea34f"></path><path d="M546.9058041414246,306.56506325583905L493.04454064229503,387.05552126513794L574.815389662981,350.1692288648337Z" fill="#fe9c46" stroke="#fe9c46"></path><path d="M546.9058041414246,306.56506325583905L574.815389662981,350.1692288648337L571.7052616784349,274.57927983487025Z" fill="#fea24d" stroke="#fea24d"></path><path d="M571.7052616784349,274.57927983487025L574.815389662981,350.1692288648337L662.1052002371289,337.9798718634993Z" fill="#fe9b43" stroke="#fe9b43"></path><path d="M571.7052616784349,274.57927983487025L662.1052002371289,337.9798718634993L660.1788075547665,259.33335159672424Z" fill="#fc9f49" stroke="#fc9f49"></path><path d="M660.1788075547665,259.33335159672424L662.1052002371289,337.9798718634993L748.4913642983884,340.7284214743413Z" fill="#fa9239" stroke="#fa9239"></path><path d="M660.1788075547665,259.33335159672424L748.4913642983884,340.7284214743413L766.8413613270968,274.6707451553084Z" fill="#f8933c" stroke="#f8933c"></path><path d="M766.8413613270968,274.6707451553084L748.4913642983884,340.7284214743413L828.4947040490806,253.93502418650314Z" fill="#f48d39" stroke="#f48d39"></path><path d="M828.4947040490806,253.93502418650314L748.4913642983884,340.7284214743413L859.2365884128958,388.0984392086975Z" fill="#f2812a" stroke="#f2812a"></path><path d="M828.4947040490806,253.93502418650314L859.2365884128958,388.0984392086975L916.8583133793436,261.5075370389968Z" fill="#ed812f" stroke="#ed812f"></path><path d="M916.8583133793436,261.5075370389968L859.2365884128958,388.0984392086975L916.940123711247,389.4702879781835Z" fill="#e77321" stroke="#e77321"></path><path d="M916.8583133793436,261.5075370389968L916.940123711247,389.4702879781835L991.4114419114776,376.3940684730187Z" fill="#db7023" stroke="#db7023"></path><path d="M916.8583133793436,261.5075370389968L991.4114419114776,376.3940684730187L969.9496942711994,254.48415577877313Z" fill="#d77931" stroke="#d77931"></path><path d="M969.9496942711994,254.48415577877313L991.4114419114776,376.3940684730187L1093.769447512459,304.92422461975366Z" fill="#c7702d" stroke="#c7702d"></path><path d="M1093.769447512459,304.92422461975366L991.4114419114776,376.3940684730187L1081.6495300130919,413.82333003217354Z" fill="#bd5f1f" stroke="#bd5f1f"></path><path d="M1093.769447512459,304.92422461975366L1081.6495300130919,413.82333003217354L1114.5588308409788,379.01360504794866Z" fill="#b35c1f" stroke="#b35c1f"></path><path d="M1093.769447512459,304.92422461975366L1114.5588308409788,379.01360504794866L1133.4326094505377,342.545899276156Z" fill="#ae6025" stroke="#ae6025"></path><path d="M1093.769447512459,304.92422461975366L1133.4326094505377,342.545899276156L1178.901420107577,301.3901555771008Z" fill="#a8642c" stroke="#a8642c"></path><path d="M1178.901420107577,301.3901555771008L1133.4326094505377,342.545899276156L1274.5933144399896,383.65886581130326Z" fill="#985826" stroke="#985826"></path><path d="M1178.901420107577,301.3901555771008L1274.5933144399896,383.65886581130326L1235.8816219540313,285.58932072715834Z" fill="#905a2b" stroke="#905a2b"></path><path d="M-44.94118960574269,363.05939647136256L-68.27245442196727,735.461539842654L-41.93636698415503,488.1843320047483Z" fill="#efa28c" stroke="#efa28c"></path><path d="M-44.94118960574269,363.05939647136256L-41.93636698415503,488.1843320047483L-24.213219040539116,457.5130446930416Z" fill="#ffb68b" stroke="#ffb68b"></path><path d="M-44.94118960574269,363.05939647136256L-24.213219040539116,457.5130446930416L25.87263042340055,454.4255570648238Z" fill="#ffb889" stroke="#ffb889"></path><path d="M-44.94118960574269,363.05939647136256L25.87263042340055,454.4255570648238L16.987180174328387,332.9011698043905Z" fill="#ffc28e" stroke="#ffc28e"></path><path d="M16.987180174328387,332.9011698043905L25.87263042340055,454.4255570648238L120.54482070030645,376.2149627134204Z" fill="#ffbd88" stroke="#ffbd88"></path><path d="M120.54482070030645,376.2149627134204L25.87263042340055,454.4255570648238L91.94851537235081,471.22309557162225Z" fill="#ffb17f" stroke="#ffb17f"></path><path d="M120.54482070030645,376.2149627134204L91.94851537235081,471.22309557162225L222.93954978697002,459.9377492489293Z" fill="#ffad79" stroke="#ffad79"></path><path d="M120.54482070030645,376.2149627134204L222.93954978697002,459.9377492489293L178.13646924914792,337.58204996818677Z" fill="#ffb67a" stroke="#ffb67a"></path><path d="M178.13646924914792,337.58204996818677L222.93954978697002,459.9377492489293L267.2939081583172,371.30971485283226Z" fill="#feb273" stroke="#feb273"></path><path d="M267.2939081583172,371.30971485283226L222.93954978697002,459.9377492489293L262.9771810839884,462.69935600459576Z" fill="#fea669" stroke="#fea669"></path><path d="M267.2939081583172,371.30971485283226L262.9771810839884,462.69935600459576L385.01089667202905,432.3227264196612Z" fill="#fea460" stroke="#fea460"></path><path d="M267.2939081583172,371.30971485283226L385.01089667202905,432.3227264196612L379.3029178539291,346.72085114987567Z" fill="#fea960" stroke="#fea960"></path><path d="M379.3029178539291,346.72085114987567L385.01089667202905,432.3227264196612L411.9542536884546,341.08617750927806Z" fill="#fea659" stroke="#fea659"></path><path d="M411.9542536884546,341.08617750927806L385.01089667202905,432.3227264196612L443.7226509838365,426.69686370296404Z" fill="#fe9d4f" stroke="#fe9d4f"></path><path d="M411.9542536884546,341.08617750927806L443.7226509838365,426.69686370296404L493.04454064229503,387.05552126513794Z" fill="#fe9d4c" stroke="#fe9d4c"></path><path d="M493.04454064229503,387.05552126513794L443.7226509838365,426.69686370296404L548.2211470953189,432.4001814634539Z" fill="#fe8f3e" stroke="#fe8f3e"></path><path d="M493.04454064229503,387.05552126513794L548.2211470953189,432.4001814634539L574.815389662981,350.1692288648337Z" fill="#fe913d" stroke="#fe913d"></path><path d="M574.815389662981,350.1692288648337L548.2211470953189,432.4001814634539L609.8898142459802,421.74279377097264Z" fill="#fe8a34" stroke="#fe8a34"></path><path d="M574.815389662981,350.1692288648337L609.8898142459802,421.74279377097264L662.1052002371289,337.9798718634993Z" fill="#fd8d35" stroke="#fd8d35"></path><path d="M662.1052002371289,337.9798718634993L609.8898142459802,421.74279377097264L696.9890220230445,423.2044136035256Z" fill="#fb822a" stroke="#fb822a"></path><path d="M662.1052002371289,337.9798718634993L696.9890220230445,423.2044136035256L748.4913642983884,340.7284214743413Z" fill="#f9832a" stroke="#f9832a"></path><path d="M748.4913642983884,340.7284214743413L696.9890220230445,423.2044136035256L739.1400622134097,414.98702798737213Z" fill="#f87a21" stroke="#f87a21"></path><path d="M748.4913642983884,340.7284214743413L739.1400622134097,414.98702798737213L809.1547525720671,432.00275564566255Z" fill="#f5741e" stroke="#f5741e"></path><path d="M748.4913642983884,340.7284214743413L809.1547525720671,432.00275564566255L859.2365884128958,388.0984392086975Z" fill="#f2721d" stroke="#f2721d"></path><path d="M859.2365884128958,388.0984392086975L809.1547525720671,432.00275564566255L850.2704306785017,514.7924252646044Z" fill="#ef6015" stroke="#ef6015"></path><path d="M859.2365884128958,388.0984392086975L850.2704306785017,514.7924252646044L932.848188506905,426.0596908838488Z" fill="#eb5c12" stroke="#eb5c12"></path><path d="M859.2365884128958,388.0984392086975L932.848188506905,426.0596908838488L916.940123711247,389.4702879781835Z" fill="#e66416" stroke="#e66416"></path><path d="M916.940123711247,389.4702879781835L932.848188506905,426.0596908838488L991.4114419114776,376.3940684730187Z" fill="#da6117" stroke="#da6117"></path><path d="M991.4114419114776,376.3940684730187L932.848188506905,426.0596908838488L998.7169422209263,435.6331968260929Z" fill="#d35b14" stroke="#d35b14"></path><path d="M991.4114419114776,376.3940684730187L998.7169422209263,435.6331968260929L1081.6495300130919,413.82333003217354Z" fill="#c65715" stroke="#c65715"></path><path d="M1114.5588308409788,379.01360504794866L1081.6495300130919,413.82333003217354L1141.17101166863,415.46152093680575Z" fill="#ae5118" stroke="#ae5118"></path><path d="M1114.5588308409788,379.01360504794866L1141.17101166863,415.46152093680575L1133.4326094505377,342.545899276156Z" fill="#aa551d" stroke="#aa551d"></path><path d="M1133.4326094505377,342.545899276156L1141.17101166863,415.46152093680575L1274.5933144399896,383.65886581130326Z" fill="#9c501d" stroke="#9c501d"></path><path d="M1274.5933144399896,383.65886581130326L1141.17101166863,415.46152093680575L1265.5658424645662,418.3405339717865Z" fill="#904518" stroke="#904518"></path><path d="M1274.5933144399896,383.65886581130326L1265.5658424645662,418.3405339717865L1260.933713442646,553.7340069166385Z" fill="#863616" stroke="#863616"></path><path d="M-24.213219040539116,457.5130446930416L-41.93636698415503,488.1843320047483L26.392494866158813,505.77647120459005Z" fill="#ffaa89" stroke="#ffaa89"></path><path d="M-24.213219040539116,457.5130446930416L26.392494866158813,505.77647120459005L25.87263042340055,454.4255570648238Z" fill="#ffab86" stroke="#ffab86"></path><path d="M25.87263042340055,454.4255570648238L26.392494866158813,505.77647120459005L91.94851537235081,471.22309557162225Z" fill="#ffa882" stroke="#ffa882"></path><path d="M91.94851537235081,471.22309557162225L26.392494866158813,505.77647120459005L119.15745705831796,526.3519000960514Z" fill="#fda17f" stroke="#fda17f"></path><path d="M91.94851537235081,471.22309557162225L119.15745705831796,526.3519000960514L222.93954978697002,459.9377492489293Z" fill="#ffa179" stroke="#ffa179"></path><path d="M222.93954978697002,459.9377492489293L119.15745705831796,526.3519000960514L201.58766533480957,554.7869205940515Z" fill="#f79973" stroke="#f79973"></path><path d="M222.93954978697002,459.9377492489293L201.58766533480957,554.7869205940515L271.6670217458159,512.6000365708023Z" fill="#f9966c" stroke="#f9966c"></path><path d="M222.93954978697002,459.9377492489293L271.6670217458159,512.6000365708023L262.9771810839884,462.69935600459576Z" fill="#fe9b69" stroke="#fe9b69"></path><path d="M262.9771810839884,462.69935600459576L271.6670217458159,512.6000365708023L369.5030066045001,486.8851892929524Z" fill="#fe9561" stroke="#fe9561"></path><path d="M262.9771810839884,462.69935600459576L369.5030066045001,486.8851892929524L385.01089667202905,432.3227264196612Z" fill="#fe975a" stroke="#fe975a"></path><path d="M385.01089667202905,432.3227264196612L369.5030066045001,486.8851892929524L443.7226509838365,426.69686370296404Z" fill="#fe934f" stroke="#fe934f"></path><path d="M443.7226509838365,426.69686370296404L369.5030066045001,486.8851892929524L406.57809178810567,543.1240606145002Z" fill="#fe894d" stroke="#fe894d"></path><path d="M443.7226509838365,426.69686370296404L406.57809178810567,543.1240606145002L538.4702209802344,495.7502673007548Z" fill="#fe8243" stroke="#fe8243"></path><path d="M443.7226509838365,426.69686370296404L538.4702209802344,495.7502673007548L548.2211470953189,432.4001814634539Z" fill="#fe853c" stroke="#fe853c"></path><path d="M548.2211470953189,432.4001814634539L538.4702209802344,495.7502673007548L585.7374288351275,494.0362983988598Z" fill="#fe7b34" stroke="#fe7b34"></path><path d="M548.2211470953189,432.4001814634539L585.7374288351275,494.0362983988598L609.8898142459802,421.74279377097264Z" fill="#fe7e30" stroke="#fe7e30"></path><path d="M609.8898142459802,421.74279377097264L585.7374288351275,494.0362983988598L696.9890220230445,423.2044136035256Z" fill="#fc7929" stroke="#fc7929"></path><path d="M696.9890220230445,423.2044136035256L585.7374288351275,494.0362983988598L710.2679310948588,524.7244433290325Z" fill="#fb6c25" stroke="#fb6c25"></path><path d="M696.9890220230445,423.2044136035256L710.2679310948588,524.7244433290325L739.1400622134097,414.98702798737213Z" fill="#f96c1d" stroke="#f96c1d"></path><path d="M739.1400622134097,414.98702798737213L710.2679310948588,524.7244433290325L794.8506085458212,493.60219911439344Z" fill="#f7631a" stroke="#f7631a"></path><path d="M739.1400622134097,414.98702798737213L794.8506085458212,493.60219911439344L809.1547525720671,432.00275564566255Z" fill="#f46618" stroke="#f46618"></path><path d="M809.1547525720671,432.00275564566255L794.8506085458212,493.60219911439344L850.2704306785017,514.7924252646044Z" fill="#f15a16" stroke="#f15a16"></path><path d="M932.848188506905,426.0596908838488L850.2704306785017,514.7924252646044L894.4653314049356,539.3777936999686Z" fill="#e84f12" stroke="#e84f12"></path><path d="M932.848188506905,426.0596908838488L894.4653314049356,539.3777936999686L998.7169422209263,435.6331968260929Z" fill="#db5113" stroke="#db5113"></path><path d="M998.7169422209263,435.6331968260929L894.4653314049356,539.3777936999686L1032.2017751913518,533.8668950018473Z" fill="#d14513" stroke="#d14513"></path><path d="M998.7169422209263,435.6331968260929L1032.2017751913518,533.8668950018473L1077.1246967813931,492.05872918246314Z" fill="#c34314" stroke="#c34314"></path><path d="M998.7169422209263,435.6331968260929L1077.1246967813931,492.05872918246314L1081.6495300130919,413.82333003217354Z" fill="#be4b14" stroke="#be4b14"></path><path d="M1081.6495300130919,413.82333003217354L1077.1246967813931,492.05872918246314L1141.17101166863,415.46152093680575Z" fill="#b24815" stroke="#b24815"></path><path d="M1141.17101166863,415.46152093680575L1077.1246967813931,492.05872918246314L1166.7191490507685,508.11040363274515Z" fill="#aa3f15" stroke="#aa3f15"></path><path d="M1141.17101166863,415.46152093680575L1166.7191490507685,508.11040363274515L1265.5658424645662,418.3405339717865Z" fill="#9a3e15" stroke="#9a3e15"></path><path d="M1265.5658424645662,418.3405339717865L1166.7191490507685,508.11040363274515L1260.933713442646,553.7340069166385Z" fill="#8f3016" stroke="#8f3016"></path><path d="M-41.93636698415503,488.1843320047483L-68.27245442196727,735.461539842654L-37.36143897520378,597.8085838002153Z" fill="#c6938c" stroke="#c6938c"></path><path d="M-41.93636698415503,488.1843320047483L-37.36143897520378,597.8085838002153L26.392494866158813,505.77647120459005Z" fill="#eea089" stroke="#eea089"></path><path d="M26.392494866158813,505.77647120459005L-37.36143897520378,597.8085838002153L40.23698966484517,582.5527063105255Z" fill="#de9986" stroke="#de9986"></path><path d="M26.392494866158813,505.77647120459005L40.23698966484517,582.5527063105255L119.15745705831796,526.3519000960514Z" fill="#ea9b81" stroke="#ea9b81"></path><path d="M119.15745705831796,526.3519000960514L40.23698966484517,582.5527063105255L88.69085679063573,593.4435008303262Z" fill="#da947f" stroke="#da947f"></path><path d="M119.15745705831796,526.3519000960514L88.69085679063573,593.4435008303262L201.58766533480957,554.7869205940515Z" fill="#df937a" stroke="#df937a"></path><path d="M201.58766533480957,554.7869205940515L88.69085679063573,593.4435008303262L191.17266403045505,647.7496135863476Z" fill="#ca8977" stroke="#ca8977"></path><path d="M201.58766533480957,554.7869205940515L191.17266403045505,647.7496135863476L222.05510242376477,618.7737406184897Z" fill="#c58470" stroke="#c58470"></path><path d="M201.58766533480957,554.7869205940515L222.05510242376477,618.7737406184897L268.47051937831566,621.7490035062656Z" fill="#c9846c" stroke="#c9846c"></path><path d="M201.58766533480957,554.7869205940515L268.47051937831566,621.7490035062656L271.6670217458159,512.6000365708023Z" fill="#dc8a6a" stroke="#dc8a6a"></path><path d="M271.6670217458159,512.6000365708023L268.47051937831566,621.7490035062656L325.3333593090065,580.336813214235Z" fill="#d88563" stroke="#d88563"></path><path d="M271.6670217458159,512.6000365708023L325.3333593090065,580.336813214235L369.5030066045001,486.8851892929524Z" fill="#f08a5d" stroke="#f08a5d"></path><path d="M369.5030066045001,486.8851892929524L325.3333593090065,580.336813214235L406.57809178810567,543.1240606145002Z" fill="#ea8355" stroke="#ea8355"></path><path d="M406.57809178810567,543.1240606145002L325.3333593090065,580.336813214235L429.7944450820796,592.9422919778153Z" fill="#d77a51" stroke="#d77a51"></path><path d="M406.57809178810567,543.1240606145002L429.7944450820796,592.9422919778153L494.15198165457696,570.1854211883619Z" fill="#d97446" stroke="#d97446"></path><path d="M406.57809178810567,543.1240606145002L494.15198165457696,570.1854211883619L538.4702209802344,495.7502673007548Z" fill="#ea7641" stroke="#ea7641"></path><path d="M538.4702209802344,495.7502673007548L494.15198165457696,570.1854211883619L585.7374288351275,494.0362983988598Z" fill="#f37337" stroke="#f37337"></path><path d="M585.7374288351275,494.0362983988598L494.15198165457696,570.1854211883619L596.3211067975499,633.0741212144494Z" fill="#db6734" stroke="#db6734"></path><path d="M585.7374288351275,494.0362983988598L596.3211067975499,633.0741212144494L653.856614169199,634.9805768486112Z" fill="#ce5d2c" stroke="#ce5d2c"></path><path d="M585.7374288351275,494.0362983988598L653.856614169199,634.9805768486112L710.2679310948588,524.7244433290325Z" fill="#e05f27" stroke="#e05f27"></path><path d="M710.2679310948588,524.7244433290325L653.856614169199,634.9805768486112L776.6330497385934,608.6641839100048Z" fill="#c9501e" stroke="#c9501e"></path><path d="M710.2679310948588,524.7244433290325L776.6330497385934,608.6641839100048L794.8506085458212,493.60219911439344Z" fill="#df5419" stroke="#df5419"></path><path d="M794.8506085458212,493.60219911439344L776.6330497385934,608.6641839100048L850.2704306785017,514.7924252646044Z" fill="#dd4f17" stroke="#dd4f17"></path><path d="M850.2704306785017,514.7924252646044L776.6330497385934,608.6641839100048L822.215080098249,633.457619517576Z" fill="#c34516" stroke="#c34516"></path><path d="M850.2704306785017,514.7924252646044L822.215080098249,633.457619517576L894.4653314049356,539.3777936999686Z" fill="#cc4514" stroke="#cc4514"></path><path d="M894.4653314049356,539.3777936999686L822.215080098249,633.457619517576L896.7671932070516,620.7366839121096Z" fill="#b83c13" stroke="#b83c13"></path><path d="M894.4653314049356,539.3777936999686L896.7671932070516,620.7366839121096L1009.3195502343588,597.208517587278Z" fill="#b03913" stroke="#b03913"></path><path d="M894.4653314049356,539.3777936999686L1009.3195502343588,597.208517587278L1032.2017751913518,533.8668950018473Z" fill="#b33a13" stroke="#b33a13"></path><path d="M1032.2017751913518,533.8668950018473L1009.3195502343588,597.208517587278L1103.1692135334015,606.7533386964351Z" fill="#952f14" stroke="#952f14"></path><path d="M1032.2017751913518,533.8668950018473L1103.1692135334015,606.7533386964351L1077.1246967813931,492.05872918246314Z" fill="#a13414" stroke="#a13414"></path><path d="M1077.1246967813931,492.05872918246314L1103.1692135334015,606.7533386964351L1156.9263281789608,579.788941941224Z" fill="#8e2e15" stroke="#8e2e15"></path><path d="M1077.1246967813931,492.05872918246314L1156.9263281789608,579.788941941224L1166.7191490507685,508.11040363274515Z" fill="#9a3215" stroke="#9a3215"></path><path d="M1166.7191490507685,508.11040363274515L1156.9263281789608,579.788941941224L1236.0393921053037,593.0866184900515Z" fill="#7a2715" stroke="#7a2715"></path><path d="M1166.7191490507685,508.11040363274515L1236.0393921053037,593.0866184900515L1260.933713442646,553.7340069166385Z" fill="#762516" stroke="#762516"></path><path d="M1260.933713442646,553.7340069166385L1236.0393921053037,593.0866184900515L1242.8503015218303,674.3287852662615Z" fill="#521816" stroke="#521816"></path><path d="M-37.36143897520378,597.8085838002153L-68.27245442196727,735.461539842654L-19.22163250623271,685.0592396128923Z" fill="#a3858b" stroke="#a3858b"></path><path d="M-37.36143897520378,597.8085838002153L-19.22163250623271,685.0592396128923L21.235790422651917,664.7493655583821Z" fill="#b08888" stroke="#b08888"></path><path d="M-37.36143897520378,597.8085838002153L21.235790422651917,664.7493655583821L40.23698966484517,582.5527063105255Z" fill="#c28e86" stroke="#c28e86"></path><path d="M40.23698966484517,582.5527063105255L21.235790422651917,664.7493655583821L88.69085679063573,593.4435008303262Z" fill="#c28c82" stroke="#c28c82"></path><path d="M88.69085679063573,593.4435008303262L21.235790422651917,664.7493655583821L101.72233319375664,649.6250846702605Z" fill="#b78780" stroke="#b78780"></path><path d="M88.69085679063573,593.4435008303262L101.72233319375664,649.6250846702605L191.17266403045505,647.7496135863476Z" fill="#b9857b" stroke="#b9857b"></path><path d="M222.05510242376477,618.7737406184897L191.17266403045505,647.7496135863476L268.47051937831566,621.7490035062656Z" fill="#b97e6d" stroke="#b97e6d"></path><path d="M268.47051937831566,621.7490035062656L191.17266403045505,647.7496135863476L300.7798215164803,697.5120561942458Z" fill="#ab7769" stroke="#ab7769"></path><path d="M268.47051937831566,621.7490035062656L300.7798215164803,697.5120561942458L327.74670735001564,649.5709793106653Z" fill="#ab7362" stroke="#ab7362"></path><path d="M268.47051937831566,621.7490035062656L327.74670735001564,649.5709793106653L325.3333593090065,580.336813214235Z" fill="#c07a60" stroke="#c07a60"></path><path d="M325.3333593090065,580.336813214235L327.74670735001564,649.5709793106653L429.7944450820796,592.9422919778153Z" fill="#c57656" stroke="#c57656"></path><path d="M429.7944450820796,592.9422919778153L327.74670735001564,649.5709793106653L411.8747053761035,681.9963702512905Z" fill="#b36b50" stroke="#b36b50"></path><path d="M429.7944450820796,592.9422919778153L411.8747053761035,681.9963702512905L530.4413315607235,655.5367601988837Z" fill="#b26444" stroke="#b26444"></path><path d="M429.7944450820796,592.9422919778153L530.4413315607235,655.5367601988837L494.15198165457696,570.1854211883619Z" fill="#c56840" stroke="#c56840"></path><path d="M494.15198165457696,570.1854211883619L530.4413315607235,655.5367601988837L596.3211067975499,633.0741212144494Z" fill="#be5f37" stroke="#be5f37"></path><path d="M596.3211067975499,633.0741212144494L530.4413315607235,655.5367601988837L599.9637549626641,649.3373389309272Z" fill="#b05631" stroke="#b05631"></path><path d="M596.3211067975499,633.0741212144494L599.9637549626641,649.3373389309272L653.856614169199,634.9805768486112Z" fill="#b2522b" stroke="#b2522b"></path><path d="M653.856614169199,634.9805768486112L599.9637549626641,649.3373389309272L656.4880372420885,698.7474179570563Z" fill="#a64b28" stroke="#a64b28"></path><path d="M653.856614169199,634.9805768486112L656.4880372420885,698.7474179570563L737.8233687137254,679.6102611534297Z" fill="#9f4422" stroke="#9f4422"></path><path d="M653.856614169199,634.9805768486112L737.8233687137254,679.6102611534297L776.6330497385934,608.6641839100048Z" fill="#ad441c" stroke="#ad441c"></path><path d="M776.6330497385934,608.6641839100048L737.8233687137254,679.6102611534297L822.215080098249,633.457619517576Z" fill="#a93e18" stroke="#a93e18"></path><path d="M822.215080098249,633.457619517576L737.8233687137254,679.6102611534297L859.6265674941242,697.3127124086022Z" fill="#983517" stroke="#983517"></path><path d="M822.215080098249,633.457619517576L859.6265674941242,697.3127124086022L896.7671932070516,620.7366839121096Z" fill="#9d3313" stroke="#9d3313"></path><path d="M896.7671932070516,620.7366839121096L859.6265674941242,697.3127124086022L947.620838675648,702.0061594527215Z" fill="#892b12" stroke="#892b12"></path><path d="M896.7671932070516,620.7366839121096L947.620838675648,702.0061594527215L970.4911642032675,671.7169446428306Z" fill="#842913" stroke="#842913"></path><path d="M896.7671932070516,620.7366839121096L970.4911642032675,671.7169446428306L1009.3195502343588,597.208517587278Z" fill="#912e13" stroke="#912e13"></path><path d="M1009.3195502343588,597.208517587278L970.4911642032675,671.7169446428306L1062.0025458489545,674.7155519993976Z" fill="#792514" stroke="#792514"></path><path d="M1009.3195502343588,597.208517587278L1062.0025458489545,674.7155519993976L1103.1692135334015,606.7533386964351Z" fill="#792514" stroke="#792514"></path><path d="M1103.1692135334015,606.7533386964351L1062.0025458489545,674.7155519993976L1191.3114249007776,649.2537668021396Z" fill="#601c15" stroke="#601c15"></path><path d="M1103.1692135334015,606.7533386964351L1191.3114249007776,649.2537668021396L1156.9263281789608,579.788941941224Z" fill="#682015" stroke="#682015"></path><path d="M1156.9263281789608,579.788941941224L1191.3114249007776,649.2537668021396L1236.0393921053037,593.0866184900515Z" fill="#5f1c16" stroke="#5f1c16"></path><path d="M1236.0393921053037,593.0866184900515L1191.3114249007776,649.2537668021396L1242.8503015218303,674.3287852662615Z" fill="#471316" stroke="#471316"></path><path d="M-19.22163250623271,685.0592396128923L-68.27245442196727,735.461539842654L62.93317507719621,787.2840708703734Z" fill="#827b88" stroke="#827b88"></path><path d="M-19.22163250623271,685.0592396128923L62.93317507719621,787.2840708703734L85.50642727408558,753.7422046763822Z" fill="#807983" stroke="#807983"></path><path d="M-19.22163250623271,685.0592396128923L85.50642727408558,753.7422046763822L21.235790422651917,664.7493655583821Z" fill="#947c84" stroke="#947c84"></path><path d="M21.235790422651917,664.7493655583821L85.50642727408558,753.7422046763822L101.72233319375664,649.6250846702605Z" fill="#9a7c80" stroke="#9a7c80"></path><path d="M101.72233319375664,649.6250846702605L85.50642727408558,753.7422046763822L191.17266403045505,647.7496135863476Z" fill="#9d7b7b" stroke="#9d7b7b"></path><path d="M191.17266403045505,647.7496135863476L85.50642727408558,753.7422046763822L226.11529762391,765.5197490146384Z" fill="#887276" stroke="#887276"></path><path d="M191.17266403045505,647.7496135863476L226.11529762391,765.5197490146384L274.8394364165142,751.9178430270404Z" fill="#886d6c" stroke="#886d6c"></path><path d="M191.17266403045505,647.7496135863476L274.8394364165142,751.9178430270404L300.7798215164803,697.5120561942458Z" fill="#946e68" stroke="#946e68"></path><path d="M300.7798215164803,697.5120561942458L274.8394364165142,751.9178430270404L378.1133027514443,788.1479145260528Z" fill="#7f655e" stroke="#7f655e"></path><path d="M300.7798215164803,697.5120561942458L378.1133027514443,788.1479145260528L411.8747053761035,681.9963702512905Z" fill="#886055" stroke="#886055"></path><path d="M300.7798215164803,697.5120561942458L411.8747053761035,681.9963702512905L327.74670735001564,649.5709793106653Z" fill="#a06959" stroke="#a06959"></path><path d="M411.8747053761035,681.9963702512905L378.1133027514443,788.1479145260528L424.4403088861145,784.1955440724269Z" fill="#7f5b4e" stroke="#7f5b4e"></path><path d="M411.8747053761035,681.9963702512905L424.4403088861145,784.1955440724269L519.673650751356,754.0984675078653Z" fill="#7f5645" stroke="#7f5645"></path><path d="M411.8747053761035,681.9963702512905L519.673650751356,754.0984675078653L530.4413315607235,655.5367601988837Z" fill="#95553f" stroke="#95553f"></path><path d="M530.4413315607235,655.5367601988837L519.673650751356,754.0984675078653L625.0254841637798,737.5955816498026Z" fill="#8b4a34" stroke="#8b4a34"></path><path d="M530.4413315607235,655.5367601988837L625.0254841637798,737.5955816498026L599.9637549626641,649.3373389309272Z" fill="#9e4e30" stroke="#9e4e30"></path><path d="M599.9637549626641,649.3373389309272L625.0254841637798,737.5955816498026L656.4880372420885,698.7474179570563Z" fill="#95462a" stroke="#95462a"></path><path d="M656.4880372420885,698.7474179570563L625.0254841637798,737.5955816498026L654.0971448179334,780.5047874990851Z" fill="#7d3f27" stroke="#7d3f27"></path><path d="M656.4880372420885,698.7474179570563L654.0971448179334,780.5047874990851L733.2409194041975,749.298151130788Z" fill="#7b3b22" stroke="#7b3b22"></path><path d="M656.4880372420885,698.7474179570563L733.2409194041975,749.298151130788L737.8233687137254,679.6102611534297Z" fill="#8a381e" stroke="#8a381e"></path><path d="M737.8233687137254,679.6102611534297L733.2409194041975,749.298151130788L859.6265674941242,697.3127124086022Z" fill="#863118" stroke="#863118"></path><path d="M859.6265674941242,697.3127124086022L733.2409194041975,749.298151130788L855.2481892961077,781.509346421808Z" fill="#722b16" stroke="#722b16"></path><path d="M859.6265674941242,697.3127124086022L855.2481892961077,781.509346421808L911.3244866789319,783.7251367908902Z" fill="#6d2412" stroke="#6d2412"></path><path d="M859.6265674941242,697.3127124086022L911.3244866789319,783.7251367908902L947.620838675648,702.0061594527215Z" fill="#6c2213" stroke="#6c2213"></path><path d="M947.620838675648,702.0061594527215L911.3244866789319,783.7251367908902L1023.81891641533,740.890250923112Z" fill="#571d13" stroke="#571d13"></path><path d="M947.620838675648,702.0061594527215L1023.81891641533,740.890250923112L970.4911642032675,671.7169446428306Z" fill="#641d13" stroke="#641d13"></path><path d="M970.4911642032675,671.7169446428306L1023.81891641533,740.890250923112L1062.0025458489545,674.7155519993976Z" fill="#5f1b14" stroke="#5f1b14"></path><path d="M1062.0025458489545,674.7155519993976L1023.81891641533,740.890250923112L1046.254514886532,753.1755773187615Z" fill="#4a1514" stroke="#4a1514"></path><path d="M1062.0025458489545,674.7155519993976L1046.254514886532,753.1755773187615L1182.4407586827874,754.5780140394345Z" fill="#391015" stroke="#391015"></path><path d="M1062.0025458489545,674.7155519993976L1182.4407586827874,754.5780140394345L1191.3114249007776,649.2537668021396Z" fill="#3f1015" stroke="#3f1015"></path><path d="M1191.3114249007776,649.2537668021396L1182.4407586827874,754.5780140394345L1242.8503015218303,674.3287852662615Z" fill="#2f0a16" stroke="#2f0a16"></path><path d="M1242.8503015218303,674.3287852662615L1182.4407586827874,754.5780140394345L1214.8072742950171,794.9732793052681Z" fill="#140516" stroke="#140516"></path><path d="M62.93317507719621,787.2840708703734L1214.8072742950171,794.9732793052681L378.1133027514443,788.1479145260528Z" fill="#7f4a35" stroke="#7f4a35"></path><path d="M62.93317507719621,787.2840708703734L378.1133027514443,788.1479145260528L226.11529762391,765.5197490146384Z" fill="#7f6e6d" stroke="#7f6e6d"></path><path d="M62.93317507719621,787.2840708703734L226.11529762391,765.5197490146384L85.50642727408558,753.7422046763822Z" fill="#7f747b" stroke="#7f747b"></path><path d="M226.11529762391,765.5197490146384L378.1133027514443,788.1479145260528L274.8394364165142,751.9178430270404Z" fill="#7f6863" stroke="#7f6863"></path><path d="M378.1133027514443,788.1479145260528L1214.8072742950171,794.9732793052681L911.3244866789319,783.7251367908902Z" fill="#702915" stroke="#702915"></path><path d="M378.1133027514443,788.1479145260528L911.3244866789319,783.7251367908902L654.0971448179334,780.5047874990851Z" fill="#7c3f27" stroke="#7c3f27"></path><path d="M378.1133027514443,788.1479145260528L654.0971448179334,780.5047874990851L424.4403088861145,784.1955440724269Z" fill="#7f5240" stroke="#7f5240"></path><path d="M424.4403088861145,784.1955440724269L654.0971448179334,780.5047874990851L519.673650751356,754.0984675078653Z" fill="#7f4d38" stroke="#7f4d38"></path><path d="M519.673650751356,754.0984675078653L654.0971448179334,780.5047874990851L625.0254841637798,737.5955816498026Z" fill="#7e452e" stroke="#7e452e"></path><path d="M654.0971448179334,780.5047874990851L911.3244866789319,783.7251367908902L855.2481892961077,781.509346421808Z" fill="#732c17" stroke="#732c17"></path><path d="M654.0971448179334,780.5047874990851L855.2481892961077,781.509346421808L733.2409194041975,749.298151130788Z" fill="#77331a" stroke="#77331a"></path><path d="M911.3244866789319,783.7251367908902L1214.8072742950171,794.9732793052681L1046.254514886532,753.1755773187615Z" fill="#3d1414" stroke="#3d1414"></path><path d="M911.3244866789319,783.7251367908902L1046.254514886532,753.1755773187615L1023.81891641533,740.890250923112Z" fill="#4e1a13" stroke="#4e1a13"></path><path d="M1046.254514886532,753.1755773187615L1214.8072742950171,794.9732793052681L1182.4407586827874,754.5780140394345Z" fill="#260b15" stroke="#260b15"></path></g><filter id="noise"><feTurbulence type="fractalNoise" in="fillPaint" fill="#F00" baseFrequency="0.7" numOctaves="10" stitchTiles="stitch"></feTurbulence><feComponentTransfer><feFuncR type="linear" slope="2" intercept="-.5"></feFuncR><feFuncG type="linear" slope="2" intercept="-.5"></feFuncG><feFuncB type="linear" slope="2" intercept="-.5"></feFuncB></feComponentTransfer><feColorMatrix type="matrix" values="0.3333 0.3333 0.3333 0 0 
 0.3333 0.3333 0.3333 0 0 
 0.3333 0.3333 0.3333 0 0 
 0 0 0 1 0"></feColorMatrix></filter><rect opacity="0.2" width="100%" height="100%" filter="url(#noise)"></rect></svg>